<svg width="400" height="400" viewBox="0 0 400 400" fill="none" xmlns="http://www.w3.org/2000/svg">
<rect width="400" height="400" fill="#D0D0D0"/>
<path d="M68.5556 315.05C85.4556 297.678 105.094 283.993 127.471 273.996C149.848 263.999 174.024 259 200 259C225.976 259 250.152 263.999 272.529 273.996C294.906 283.993 314.544 297.678 331.444 315.05V62.3333H68.5556V315.05ZM200 219.667C218.152 219.667 233.644 212.947 246.475 199.508C259.307 186.069 265.722 169.844 265.722 150.833C265.722 131.822 259.307 115.597 246.475 102.158C233.644 88.7194 218.152 82 200 82C181.848 82 166.356 88.7194 153.525 102.158C140.694 115.597 134.278 131.822 134.278 150.833C134.278 169.844 140.694 186.069 153.525 199.508C166.356 212.947 181.848 219.667 200 219.667ZM68.5556 377C58.2278 377 49.3866 373.149 42.0319 365.446C34.6773 357.743 31 348.483 31 337.667V62.3333C31 51.5167 34.6773 42.2569 42.0319 34.5542C49.3866 26.8514 58.2278 23 68.5556 23H331.444C341.772 23 350.613 26.8514 357.968 34.5542C365.323 42.2569 369 51.5167 369 62.3333V337.667C369 348.483 365.323 357.743 357.968 365.446C350.613 373.149 341.772 377 331.444 377H68.5556ZM106.111 337.667H293.889V332.75C280.744 321.278 266.192 312.674 250.231 306.938C234.269 301.201 217.526 298.333 200 298.333C182.474 298.333 165.731 301.201 149.769 306.938C133.808 312.674 119.256 321.278 106.111 332.75V337.667ZM200 180.333C192.176 180.333 185.525 177.465 180.049 171.729C174.572 165.993 171.833 159.028 171.833 150.833C171.833 142.639 174.572 135.674 180.049 129.938C185.525 124.201 192.176 121.333 200 121.333C207.824 121.333 214.475 124.201 219.951 129.938C225.428 135.674 228.167 142.639 228.167 150.833C228.167 159.028 225.428 165.993 219.951 171.729C214.475 177.465 207.824 180.333 200 180.333Z" fill="#F6F6F6"/>
</svg>
